<svg id="visual" viewBox="0 0 1920 1080" width="1920" height="1080" xmlns="http://www.w3.org/2000/svg" xmlns:xlink="http://www.w3.org/1999/xlink" version="1.1"><rect width="1920" height="1080" fill="#050505"></rect><g><g transform="translate(513 1029)"><path d="M0 -230.9L180.6 -144L225.1 51.4L100.2 208.1L-100.2 208.1L-225.1 51.4L-180.6 -144Z" fill="#292929"></path></g><g transform="translate(872 105)"><path d="M0 -164L128.2 -102.3L159.9 36.5L71.2 147.8L-71.2 147.8L-159.9 36.5L-128.2 -102.3Z" fill="#292929"></path></g><g transform="translate(1547 351)"><path d="M0 -210L164.2 -130.9L204.7 46.7L91.1 189.2L-91.1 189.2L-204.7 46.7L-164.2 -130.9Z" fill="#292929"></path></g><g transform="translate(198 68)"><path d="M0 -134L104.8 -83.5L130.6 29.8L58.1 120.7L-58.1 120.7L-130.6 29.8L-104.8 -83.5Z" fill="#292929"></path></g><g transform="translate(1190 776)"><path d="M0 -120L93.8 -74.8L117 26.7L52.1 108.1L-52.1 108.1L-117 26.7L-93.8 -74.8Z" fill="#292929"></path></g><g transform="translate(1808 778)"><path d="M0 -176L137.6 -109.7L171.6 39.2L76.4 158.6L-76.4 158.6L-171.6 39.2L-137.6 -109.7Z" fill="#292929"></path></g><g transform="translate(620 513)"><path d="M0 -108L84.4 -67.3L105.3 24L46.9 97.3L-46.9 97.3L-105.3 24L-84.4 -67.3Z" fill="#292929"></path></g></g></svg>