<svg id="visual" viewBox="0 0 2560 1440" width="2560" height="1440" xmlns="http://www.w3.org/2000/svg" xmlns:xlink="http://www.w3.org/1999/xlink" version="1.1"><rect width="2560" height="1440" fill="#040404"></rect><g><g transform="translate(740 1378)"><path d="M0 -368.8L319.4 -184.4L319.4 184.4L0 368.8L-319.4 184.4L-319.4 -184.4Z" fill="#272727"></path></g><g transform="translate(1601 970)"><path d="M0 -173L149.8 -86.5L149.8 86.5L0 173L-149.8 86.5L-149.8 -86.5Z" fill="#272727"></path></g><g transform="translate(54 887)"><path d="M0 -178L154.2 -89L154.2 89L0 178L-154.2 89L-154.2 -89Z" fill="#272727"></path></g><g transform="translate(267 22)"><path d="M0 -304L263.3 -152L263.3 152L0 304L-263.3 152L-263.3 -152Z" fill="#272727"></path></g><g transform="translate(2352 984)"><path d="M0 -239L207 -119.5L207 119.5L0 239L-207 119.5L-207 -119.5Z" fill="#272727"></path></g><g transform="translate(957 330)"><path d="M0 -244L211.3 -122L211.3 122L0 244L-211.3 122L-211.3 -122Z" fill="#272727"></path></g><g transform="translate(2170 14)"><path d="M0 -277L239.9 -138.5L239.9 138.5L0 277L-239.9 138.5L-239.9 -138.5Z" fill="#272727"></path></g></g></svg>