<svg id="visual" viewBox="0 0 2560 1440" width="2560" height="1440" xmlns="http://www.w3.org/2000/svg" xmlns:xlink="http://www.w3.org/1999/xlink" version="1.1"><path d="M0 332L38.8 372.8C77.7 413.7 155.3 495.3 232.8 483.3C310.3 471.3 387.7 365.7 465.2 346.5C542.7 327.3 620.3 394.7 698 435.5C775.7 476.3 853.3 490.7 931 478.7C1008.7 466.7 1086.3 428.3 1163.8 404.3C1241.3 380.3 1318.7 370.7 1396.2 365.8C1473.7 361 1551.3 361 1629 349C1706.7 337 1784.3 313 1862 313C1939.7 313 2017.3 337 2094.8 341.8C2172.3 346.7 2249.7 332.3 2327.2 306C2404.7 279.7 2482.3 241.3 2521.2 222.2L2560 203L2560 0L2521.2 0C2482.3 0 2404.7 0 2327.2 0C2249.7 0 2172.3 0 2094.8 0C2017.3 0 1939.7 0 1862 0C1784.3 0 1706.7 0 1629 0C1551.3 0 1473.7 0 1396.2 0C1318.7 0 1241.3 0 1163.8 0C1086.3 0 1008.7 0 931 0C853.3 0 775.7 0 698 0C620.3 0 542.7 0 465.2 0C387.7 0 310.3 0 232.8 0C155.3 0 77.7 0 38.8 0L0 0Z" fill="#ffffff"></path><path d="M0 462L38.8 517.2C77.7 572.3 155.3 682.7 232.8 692.2C310.3 701.7 387.7 610.3 465.2 588.7C542.7 567 620.3 615 698 646.3C775.7 677.7 853.3 692.3 931 663.7C1008.7 635 1086.3 563 1163.8 524.5C1241.3 486 1318.7 481 1396.2 497.7C1473.7 514.3 1551.3 552.7 1629 567.2C1706.7 581.7 1784.3 572.3 1862 577.2C1939.7 582 2017.3 601 2094.8 605.7C2172.3 610.3 2249.7 600.7 2327.2 550.3C2404.7 500 2482.3 409 2521.2 363.5L2560 318L2560 201L2521.2 220.2C2482.3 239.3 2404.7 277.7 2327.2 304C2249.7 330.3 2172.3 344.7 2094.8 339.8C2017.3 335 1939.7 311 1862 311C1784.3 311 1706.7 335 1629 347C1551.3 359 1473.7 359 1396.2 363.8C1318.7 368.7 1241.3 378.3 1163.8 402.3C1086.3 426.3 1008.7 464.7 931 476.7C853.3 488.7 775.7 474.3 698 433.5C620.3 392.7 542.7 325.3 465.2 344.5C387.7 363.7 310.3 469.3 232.8 481.3C155.3 493.3 77.7 411.7 38.8 370.8L0 330Z" fill="#e5e5e5"></path><path d="M0 793L38.8 826.7C77.7 860.3 155.3 927.7 232.8 934.8C310.3 942 387.7 889 465.2 886.5C542.7 884 620.3 932 698 958.5C775.7 985 853.3 990 931 946.8C1008.7 903.7 1086.3 812.3 1163.8 747.5C1241.3 682.7 1318.7 644.3 1396.2 675.5C1473.7 706.7 1551.3 807.3 1629 855.3C1706.7 903.3 1784.3 898.7 1862 905.8C1939.7 913 2017.3 932 2094.8 920C2172.3 908 2249.7 865 2327.2 819.5C2404.7 774 2482.3 726 2521.2 702L2560 678L2560 316L2521.2 361.5C2482.3 407 2404.7 498 2327.2 548.3C2249.7 598.7 2172.3 608.3 2094.8 603.7C2017.3 599 1939.7 580 1862 575.2C1784.3 570.3 1706.7 579.7 1629 565.2C1551.3 550.7 1473.7 512.3 1396.2 495.7C1318.7 479 1241.3 484 1163.8 522.5C1086.3 561 1008.7 633 931 661.7C853.3 690.3 775.7 675.7 698 644.3C620.3 613 542.7 565 465.2 586.7C387.7 608.3 310.3 699.7 232.8 690.2C155.3 680.7 77.7 570.3 38.8 515.2L0 460Z" fill="#cccccc"></path><path d="M0 1340L38.8 1316C77.7 1292 155.3 1244 232.8 1236.8C310.3 1229.7 387.7 1263.3 465.2 1273C542.7 1282.7 620.3 1268.3 698 1256.3C775.7 1244.3 853.3 1234.7 931 1232.2C1008.7 1229.7 1086.3 1234.3 1163.8 1234.3C1241.3 1234.3 1318.7 1229.7 1396.2 1249C1473.7 1268.3 1551.3 1311.7 1629 1318.8C1706.7 1326 1784.3 1297 1862 1277.7C1939.7 1258.3 2017.3 1248.7 2094.8 1253.5C2172.3 1258.3 2249.7 1277.7 2327.2 1273C2404.7 1268.3 2482.3 1239.7 2521.2 1225.3L2560 1211L2560 676L2521.2 700C2482.3 724 2404.7 772 2327.2 817.5C2249.7 863 2172.3 906 2094.8 918C2017.3 930 1939.7 911 1862 903.8C1784.3 896.7 1706.7 901.3 1629 853.3C1551.3 805.3 1473.7 704.7 1396.2 673.5C1318.7 642.3 1241.3 680.7 1163.8 745.5C1086.3 810.3 1008.7 901.7 931 944.8C853.3 988 775.7 983 698 956.5C620.3 930 542.7 882 465.2 884.5C387.7 887 310.3 940 232.8 932.8C155.3 925.7 77.7 858.3 38.8 824.7L0 791Z" fill="#b3b3b3"></path><path d="M0 1441L38.8 1441C77.7 1441 155.3 1441 232.8 1441C310.3 1441 387.7 1441 465.2 1441C542.7 1441 620.3 1441 698 1441C775.7 1441 853.3 1441 931 1441C1008.7 1441 1086.3 1441 1163.8 1441C1241.3 1441 1318.7 1441 1396.2 1441C1473.7 1441 1551.3 1441 1629 1441C1706.7 1441 1784.3 1441 1862 1441C1939.7 1441 2017.3 1441 2094.8 1441C2172.3 1441 2249.7 1441 2327.2 1441C2404.7 1441 2482.3 1441 2521.2 1441L2560 1441L2560 1209L2521.2 1223.3C2482.3 1237.7 2404.7 1266.3 2327.2 1271C2249.7 1275.7 2172.3 1256.3 2094.8 1251.5C2017.3 1246.7 1939.7 1256.3 1862 1275.7C1784.3 1295 1706.7 1324 1629 1316.8C1551.3 1309.7 1473.7 1266.3 1396.2 1247C1318.7 1227.7 1241.3 1232.3 1163.8 1232.3C1086.3 1232.3 1008.7 1227.7 931 1230.2C853.3 1232.7 775.7 1242.3 698 1254.3C620.3 1266.3 542.7 1280.7 465.2 1271C387.7 1261.3 310.3 1227.7 232.8 1234.8C155.3 1242 77.7 1290 38.8 1314L0 1338Z" fill="#9b9b9b"></path></svg>